Coordinates
version=1
nRows=18
nColumns=22
inDegrees=yes

Units are S.I. units (second, meters, Newtons, ...)
If the header above contains a line with 'inDegrees', this indicates whether rotational values are in degrees (yes) or radians (no).

endheader
time	pelvis_tilt	pelvis_list	pelvis_rotation	pelvis_tx	pelvis_ty	pelvis_tz	hip_flexion_r	hip_adduction_r	hip_rotation_r	knee_angle_r	ankle_angle_r	subtalar_angle_r	hip_flexion_l	hip_adduction_l	hip_rotation_l	knee_angle_l	ankle_angle_l	subtalar_angle_l	lumbar_extension	lumbar_bending	lumbar_rotation
      6.34000000	     -3.62898813	     -2.69018659	    324.63440204	     -0.63408034	      1.01832906	      0.90884094	     15.24511286	      2.94348160	      1.08023376	    -20.76145910	      3.81678745	      7.31515288	      7.58902473	     -7.19662241	    -12.18007051	    -49.12242275	      7.77596266	     -6.14672447	      1.13504682	      1.62964326	     -3.25197614
      6.35000000	     -3.56808636	     -2.74563659	    325.45985852	     -0.62996821	      1.01932240	      0.91299898	     14.62064417	      2.89871951	      0.43164205	    -20.50366858	      4.06826090	      7.20165642	      7.93907649	     -7.21393549	    -13.18855565	    -47.60739358	      8.64100053	     -6.10182649	      1.08692309	      1.60681399	     -3.18654702
      6.36000000	     -3.50215770	     -2.81054353	    326.27709104	     -0.62594572	      1.02019078	      0.91700581	     14.02225162	      2.86990999	     -0.22767830	    -20.29037911	      4.31504864	      7.08027100	      8.19074687	     -7.24591885	    -14.21385396	    -45.97741198	      9.51210888	     -6.07927083	      1.02741659	      1.58202333	     -3.11517946
      6.37000000	     -3.43435154	     -2.86775035	    327.08632823	     -0.62201728	      1.02092778	      0.92084455	     13.46644075	      2.84503229	     -0.87626268	    -20.12781007	      4.57113239	      6.95768411	      8.35802281	     -7.26048883	    -15.21397439	    -44.24244044	     10.37627978	     -6.06519575	      0.96756216	      1.54303217	     -3.05413315
      6.38000000	     -3.37596216	     -2.90462011	    327.89235458	     -0.61818679	      1.02150662	      0.92448679	     12.97157384	      2.81757293	     -1.49555745	    -20.01826132	      4.86051679	      6.84300098	      8.47030009	     -7.23472221	    -16.13749484	    -42.42901212	     11.23967761	     -6.05152564	      0.92760506	      1.48813290	     -3.00968363
      6.39000000	     -3.26422541	     -2.95282306	    328.68465298	     -0.61444397	      1.02205611	      0.92793189	     12.47696002	      2.77384557	     -2.14578451	    -19.98401580	      5.11514534	      6.70203035	      8.45110260	     -7.15494471	    -16.98228799	    -40.54656730	     12.01772020	     -5.98165770	      0.82063356	      1.41243122	     -2.94341032
      6.40000000	     -3.16379229	     -2.98099555	    329.47136425	     -0.61080430	      1.02245237	      0.93116938	     12.04645116	      2.72685873	     -2.76227159	    -20.00750705	      5.40456332	      6.56220733	      8.40489345	     -7.01838945	    -17.68298104	    -38.65168596	     12.75786830	     -5.88069999	      0.73335795	      1.32824925	     -2.89516655
      6.41000000	     -3.05033296	     -3.01087577	    330.24263539	     -0.60726182	      1.02276118	      0.93422244	     11.63772947	      2.68368735	     -3.35137163	    -20.07221795	      5.69320705	      6.40088913	      8.30563181	     -6.83211140	    -18.22681818	    -36.77531144	     13.44387559	     -5.69743919	      0.62925371	      1.24391277	     -2.84265951
      6.42000000	     -2.94566930	     -3.01473729	    331.01758621	     -0.60380064	      1.02292954	      0.93704630	     11.29044859	      2.61960261	     -3.94594488	    -20.19323586	      6.03717439	      6.25932267	      8.21154538	     -6.57446067	    -18.54930271	    -34.96126615	     14.03970610	     -5.50936703	      0.54733577	      1.14676406	     -2.81547531
      6.43000000	     -2.82002540	     -3.03040375	    331.77254361	     -0.60042573	      1.02306064	      0.93971708	     10.93645235	      2.56339291	     -4.52312676	    -20.33014300	      6.35247756	      6.09854301	      8.07280064	     -6.28391041	    -18.68290625	    -33.23313698	     14.55533832	     -5.20933140	      0.43590478	      1.05511288	     -2.79051988
      6.44000000	     -2.69081597	     -3.04709995	    332.51098080	     -0.59712482	      1.02313228	      0.94222024	     10.59025789	      2.51075222	     -5.08198233	    -20.47164980	      6.66134792	      5.93025792	      7.91891125	     -5.96367769	    -18.60199699	    -31.61740525	     14.99927108	     -4.82540032	      0.32089774	      0.97016445	     -2.77488540
      6.45000000	     -2.55163257	     -3.07623141	    333.21668421	     -0.59390575	      1.02319220	      0.94461476	     10.22294257	      2.47892932	     -5.58505383	    -20.58573259	      6.93332087	      5.73913731	      7.73116647	     -5.63423052	    -18.32345237	    -30.11686425	     15.39625399	     -4.30866419	      0.19067231	      0.89646575	     -2.75251039
      6.46000000	     -2.42622335	     -3.08976033	    333.91605963	     -0.59074347	      1.02319711	      0.94685346	      9.87173336	      2.44036155	     -6.08801166	    -20.68051855	      7.23733682	      5.56453061	      7.54829861	     -5.28195676	    -17.82926439	    -28.73007932	     15.67420211	     -3.88012693	      0.08687460	      0.81805732	     -2.76087246
      6.47000000	     -2.30995608	     -3.10182599	    334.59268894	     -0.58765864	      1.02318431	      0.94897995	      9.52249787	      2.41247649	     -6.56477535	    -20.74743367	      7.53141695	      5.39270453	      7.34909072	     -4.93118560	    -17.16392924	    -27.44499584	     15.83773885	     -3.52009376	     -0.00481381	      0.74484577	     -2.77752994
      6.48000000	     -2.19929315	     -3.11447784	    335.24119608	     -0.58463489	      1.02317037	      0.95101639	      9.16156372	      2.39647405	     -7.01262455	    -20.76956630	      7.80491647	      5.20944430	      7.11883268	     -4.59452733	    -16.39225398	    -26.24219603	     15.91440716	     -3.21765516	     -0.08578514	      0.67608302	     -2.80376384
      6.49000000	     -2.12585925	     -3.10695455	    335.86765665	     -0.58169211	      1.02309470	      0.95294020	      8.83878222	      2.38159044	     -7.44569347	    -20.76347265	      8.07064626	      5.04784507	      6.90228962	     -4.26826990	    -15.53552622	    -25.11346806	     15.89068571	     -3.04095980	     -0.11530364	      0.60460160	     -2.84557583
      6.50000000	     -2.05709732	     -3.11417929	    336.46504574	     -0.57885141	      1.02303234	      0.95477342	      8.50264878	      2.39304973	     -7.83882903	    -20.71726736	      8.30801992	      4.86592138	      6.64890930	     -3.97760070	    -14.62933153	    -24.04258548	     15.73657984	     -2.93095243	     -0.15184682	      0.54996745	     -2.89297106
      6.51000000	     -2.00910547	     -3.12172618	    337.03633933	     -0.57610325	      1.02293709	      0.95650282	      8.18394240	      2.41805822	     -8.21020066	    -20.64898506	      8.53136596	      4.67644632	      6.38764845	     -3.71923713	    -13.71278934	    -23.03257032	     15.47331081	     -2.92075172	     -0.16898515	      0.50488249	     -2.95015896
